<?xml version="1.0" encoding="UTF-8" standalone="no"?>
<!-- Created with Inkscape (http://www.inkscape.org/) -->

<svg
   version="1.1"
   id="svg1"
   width="405.24533"
   height="367.01199"
   viewBox="0 0 405.24533 367.01199"
   sodipodi:docname="horizontal-coordinate.pdf"
   xmlns:inkscape="http://www.inkscape.org/namespaces/inkscape"
   xmlns:sodipodi="http://sodipodi.sourceforge.net/DTD/sodipodi-0.dtd"
   xmlns="http://www.w3.org/2000/svg"
   xmlns:svg="http://www.w3.org/2000/svg">
  <defs
     id="defs1">
    <clipPath
       clipPathUnits="userSpaceOnUse"
       id="clipPath2">
      <path
         d="M 380.33153,-1.11479 V 292.92395 L 30.579,295.15865 0,269.53429 V -24.50446 l 349.75252,-2.23469 z"
         id="path2" />
    </clipPath>
    <clipPath
       clipPathUnits="userSpaceOnUse"
       id="clipPath4">
      <path
         d="M 380.33153,-1.11479 V 292.92395 L 30.579,295.15865 0,269.53429 V -24.50446 l 349.75252,-2.23469 z"
         transform="matrix(1.0000191,0.0064005,-0.0064005,1.0000191,-326.52383,-135.43241)"
         id="path4" />
    </clipPath>
    <clipPath
       clipPathUnits="userSpaceOnUse"
       id="clipPath5">
      <path
         d="M 380.33153,-1.11479 V 292.92395 L 30.579,295.15865 0,269.53429 V -24.50446 l 349.75252,-2.23469 z"
         transform="matrix(1,0,0,-1,-331.08601,128.42501)"
         id="path5" />
    </clipPath>
    <clipPath
       clipPathUnits="userSpaceOnUse"
       id="clipPath7">
      <path
         d="M 380.33153,-1.11479 V 292.92395 L 30.579,295.15865 0,269.53429 V -24.50446 l 349.75252,-2.23469 z"
         id="path7" />
    </clipPath>
    <clipPath
       clipPathUnits="userSpaceOnUse"
       id="clipPath9">
      <path
         d="M 380.33153,-1.11479 V 292.92395 L 30.579,295.15865 0,269.53429 V -24.50446 l 349.75252,-2.23469 z"
         transform="matrix(-0.76648346,0.64229806,-0.64229806,-0.76648346,202.23328,-19.273418)"
         id="path9" />
    </clipPath>
    <clipPath
       clipPathUnits="userSpaceOnUse"
       id="clipPath10">
      <path
         d="M 380.33153,-1.11479 V 292.92395 L 30.579,295.15865 0,269.53429 V -24.50446 l 349.75252,-2.23469 z"
         transform="matrix(1,0,0,-1,-154.45,101.53901)"
         id="path10" />
    </clipPath>
    <clipPath
       clipPathUnits="userSpaceOnUse"
       id="clipPath12">
      <path
         d="M 380.33153,-1.11479 V 292.92395 L 30.579,295.15865 0,269.53429 V -24.50446 l 349.75252,-2.23469 z"
         id="path12" />
    </clipPath>
    <clipPath
       clipPathUnits="userSpaceOnUse"
       id="clipPath14">
      <path
         d="M 380.33153,-1.11479 V 292.92395 L 30.579,295.15865 0,269.53429 V -24.50446 l 349.75252,-2.23469 z"
         transform="rotate(-90,-39.329313,229.4968)"
         id="path14" />
    </clipPath>
    <clipPath
       clipPathUnits="userSpaceOnUse"
       id="clipPath15">
      <path
         d="M 380.33153,-1.11479 V 292.92395 L 30.579,295.15865 0,269.53429 V -24.50446 l 349.75252,-2.23469 z"
         transform="matrix(1,0,0,-1,-171.36501,272.68501)"
         id="path15" />
    </clipPath>
    <clipPath
       clipPathUnits="userSpaceOnUse"
       id="clipPath16">
      <path
         d="M 380.33153,-1.11479 V 292.92395 L 30.579,295.15865 0,269.53429 V -24.50446 l 349.75252,-2.23469 z"
         transform="matrix(1,0,0,-1,-286.46601,217.25601)"
         id="path16" />
    </clipPath>
    <clipPath
       clipPathUnits="userSpaceOnUse"
       id="clipPath17">
      <path
         d="M 380.33153,-1.11479 V 292.92395 L 30.579,295.15865 0,269.53429 V -24.50446 l 349.75252,-2.23469 z"
         transform="matrix(1,0,0,-1,-96.332003,147.504)"
         id="path17" />
    </clipPath>
    <clipPath
       clipPathUnits="userSpaceOnUse"
       id="clipPath19">
      <path
         d="M 380.33153,-1.11479 V 292.92395 L 30.579,295.15865 0,269.53429 V -24.50446 l 349.75252,-2.23469 z"
         id="path19" />
    </clipPath>
    <clipPath
       clipPathUnits="userSpaceOnUse"
       id="clipPath21">
      <path
         d="M 380.33153,-1.11479 V 292.92395 L 30.579,295.15865 0,269.53429 V -24.50446 l 349.75252,-2.23469 z"
         id="path21" />
    </clipPath>
    <clipPath
       clipPathUnits="userSpaceOnUse"
       id="clipPath23">
      <path
         d="M 380.33153,-1.11479 V 292.92395 L 30.579,295.15865 0,269.53429 V -24.50446 l 349.75252,-2.23469 z"
         id="path23" />
    </clipPath>
    <clipPath
       clipPathUnits="userSpaceOnUse"
       id="clipPath25">
      <path
         d="M 380.33153,-1.11479 V 292.92395 L 30.579,295.15865 0,269.53429 V -24.50446 l 349.75252,-2.23469 z"
         transform="matrix(-0.9996867,0.0268926,-0.0268926,-0.9996867,226.1268,115.98218)"
         id="path25" />
    </clipPath>
    <clipPath
       clipPathUnits="userSpaceOnUse"
       id="clipPath27">
      <path
         d="M 380.33153,-1.11479 V 292.92395 L 30.579,295.15865 0,269.53429 V -24.50446 l 349.75252,-2.23469 z"
         id="path27" />
    </clipPath>
    <clipPath
       clipPathUnits="userSpaceOnUse"
       id="clipPath29">
      <path
         d="M 380.33153,-1.11479 V 292.92395 L 30.579,295.15865 0,269.53429 V -24.50446 l 349.75252,-2.23469 z"
         id="path29" />
    </clipPath>
    <clipPath
       clipPathUnits="userSpaceOnUse"
       id="clipPath31">
      <path
         d="M 380.33153,-1.11479 V 292.92395 L 30.579,295.15865 0,269.53429 V -24.50446 l 349.75252,-2.23469 z"
         transform="matrix(0.24225183,-0.97021729,0.97021729,0.24225183,-206.30568,91.641965)"
         id="path31" />
    </clipPath>
    <clipPath
       clipPathUnits="userSpaceOnUse"
       id="clipPath33">
      <path
         d="M 380.33153,-1.11479 V 292.92395 L 30.579,295.15865 0,269.53429 V -24.50446 l 349.75252,-2.23469 z"
         id="path33" />
    </clipPath>
    <clipPath
       clipPathUnits="userSpaceOnUse"
       id="clipPath35">
      <path
         d="M 380.33153,-1.11479 V 292.92395 L 30.579,295.15865 0,269.53429 V -24.50446 l 349.75252,-2.23469 z"
         transform="matrix(-0.22174649,-0.97514248,0.97514248,-0.22174649,-190.64519,215.19943)"
         id="path35" />
    </clipPath>
    <clipPath
       clipPathUnits="userSpaceOnUse"
       id="clipPath36">
      <path
         d="M 380.33153,-1.11479 V 292.92395 L 30.579,295.15865 0,269.53429 V -24.50446 l 349.75252,-2.23469 z"
         transform="matrix(1,0,0,-1,-157.488,242.02301)"
         id="path36" />
    </clipPath>
    <clipPath
       clipPathUnits="userSpaceOnUse"
       id="clipPath38">
      <path
         d="M 380.33153,-1.11479 V 292.92395 L 30.579,295.15865 0,269.53429 V -24.50446 l 349.75252,-2.23469 z"
         id="path38" />
    </clipPath>
    <clipPath
       clipPathUnits="userSpaceOnUse"
       id="clipPath39">
      <path
         d="M 380.33153,-1.11479 V 292.92395 L 30.579,295.15865 0,269.53429 V -24.50446 l 349.75252,-2.23469 z"
         transform="matrix(1,0,0,-1,-221.821,108.86)"
         id="path39" />
    </clipPath>
    <clipPath
       clipPathUnits="userSpaceOnUse"
       id="clipPath40">
      <path
         d="M 380.33153,-1.11479 V 292.92395 L 30.579,295.15865 0,269.53429 V -24.50446 l 349.75252,-2.23469 z"
         transform="matrix(1,0,0,-1,-131.767,185.153)"
         id="path40" />
    </clipPath>
  </defs>
  <sodipodi:namedview
     id="namedview1"
     pagecolor="#ffffff"
     bordercolor="#666666"
     borderopacity="1.0"
     inkscape:showpageshadow="2"
     inkscape:pageopacity="0.0"
     inkscape:pagecheckerboard="0"
     inkscape:deskcolor="#d1d1d1">
    <inkscape:page
       x="0"
       y="0"
       inkscape:label="1"
       id="page1"
       width="405.24533"
       height="367.01199"
       margin="0"
       bleed="0" />
  </sodipodi:namedview>
  <g
     id="g1"
     inkscape:groupmode="layer"
     inkscape:label="1">
    <path
       id="path1"
       d="m 190.16748,134.21118 137.0043,-0.87538"
       style="fill:none;stroke:#000000;stroke-width:0.3985;stroke-linecap:butt;stroke-linejoin:miter;stroke-miterlimit:10;stroke-dasharray:none;stroke-opacity:1"
       transform="matrix(1.3333333,0,0,-1.3333333,-85.352,381.28267)"
       clip-path="url(#clipPath2)" />
    <path
       id="path3"
       d="M -2.07224,2.39104 C -1.69365,0.95639 -0.84999,0.27895 0,0 -0.84999,-0.27895 -1.69365,-0.95639 -2.07224,-2.39104"
       style="fill:none;stroke:#000000;stroke-width:0.3985;stroke-linecap:round;stroke-linejoin:round;stroke-miterlimit:10;stroke-dasharray:none;stroke-opacity:1"
       transform="matrix(1.3332533,0.00853333,0.00853333,-1.3332533,351.14267,203.50329)"
       clip-path="url(#clipPath4)" />
    <text
       id="text4"
       xml:space="preserve"
       transform="matrix(1.3333333,0,0,1.3333333,356.096,210.04933)"
       clip-path="url(#clipPath5)"><tspan
         id="tspan4"
         style="font-variant:normal;font-weight:normal;font-size:14.3462px;font-family:'Latin Modern Sans';writing-mode:lr-tb;fill:#000000;fill-opacity:1;fill-rule:nonzero;stroke:none"
         x="0"
         dx="0 0 -0.3873474"
         y="0">North</tspan></text>
    <path
       id="path6"
       d="M 190.16748,134.21118 167.53314,115.24423"
       style="fill:none;stroke:#000000;stroke-width:0.3985;stroke-linecap:butt;stroke-linejoin:miter;stroke-miterlimit:10;stroke-dasharray:none;stroke-opacity:1"
       transform="matrix(1.3333333,0,0,-1.3333333,-85.352,381.28267)"
       clip-path="url(#clipPath7)" />
    <path
       id="path8"
       d="M -2.07224,2.39104 C -1.69365,0.95639 -0.84999,0.27895 0,0 -0.84999,-0.27895 -1.69365,-0.95639 -2.07224,-2.39104"
       style="fill:none;stroke:#000000;stroke-width:0.3985;stroke-linecap:round;stroke-linejoin:round;stroke-miterlimit:10;stroke-dasharray:none;stroke-opacity:1"
       transform="matrix(-1.0219333,0.85636,0.85636,1.0219333,137.82191,227.79432)"
       clip-path="url(#clipPath9)" />
    <text
       id="text9"
       xml:space="preserve"
       transform="matrix(1.3333333,0,0,1.3333333,120.58133,245.89733)"
       clip-path="url(#clipPath10)"><tspan
         id="tspan9"
         style="font-variant:normal;font-weight:normal;font-size:14.3462px;font-family:'Latin Modern Sans';writing-mode:lr-tb;fill:#000000;fill-opacity:1;fill-rule:nonzero;stroke:none"
         x="0"
         y="0">East</tspan></text>
    <path
       id="path11"
       d="M 190.16748,134.21118 V 268.62686"
       style="fill:none;stroke:#000000;stroke-width:0.3985;stroke-linecap:butt;stroke-linejoin:miter;stroke-miterlimit:10;stroke-dasharray:none;stroke-opacity:1"
       transform="matrix(1.3333333,0,0,-1.3333333,-85.352,381.28267)"
       clip-path="url(#clipPath12)" />
    <path
       id="path13"
       d="M -2.07224,2.39104 C -1.69365,0.95639 -0.84999,0.27895 0,0 -0.84999,-0.27895 -1.69365,-0.95639 -2.07224,-2.39104"
       style="fill:none;stroke:#000000;stroke-width:0.3985;stroke-linecap:round;stroke-linejoin:round;stroke-miterlimit:10;stroke-dasharray:none;stroke-opacity:1"
       transform="matrix(0,-1.3333333,-1.3333333,0,168.20464,22.847853)"
       clip-path="url(#clipPath14)" />
    <text
       id="text14"
       xml:space="preserve"
       transform="matrix(1.3333333,0,0,1.3333333,143.13467,17.702667)"
       clip-path="url(#clipPath15)"><tspan
         id="tspan14"
         style="font-variant:normal;font-weight:normal;font-size:14.3462px;font-family:'Latin Modern Sans';writing-mode:lr-tb;fill:#000000;fill-opacity:1;fill-rule:nonzero;stroke:none"
         x="0"
         y="0">Zenith</tspan></text>
    <text
       id="text15"
       xml:space="preserve"
       transform="matrix(1.3333333,0,0,1.3333333,296.60267,91.608)"
       clip-path="url(#clipPath16)"><tspan
         id="tspan15"
         style="font-variant:normal;font-weight:normal;font-size:9.96264px;font-family:'Latin Modern Sans';writing-mode:lr-tb;fill:#000000;fill-opacity:1;fill-rule:nonzero;stroke:none"
         x="0"
         y="0">Meridian</tspan></text>
    <text
       id="text16"
       xml:space="preserve"
       transform="matrix(1.3333333,0,0,1.3333333,43.090667,184.61067)"
       clip-path="url(#clipPath17)"><tspan
         id="tspan16"
         style="font-variant:normal;font-weight:normal;font-size:9.96264px;font-family:'Latin Modern Sans';writing-mode:lr-tb;fill:#000000;fill-opacity:1;fill-rule:nonzero;stroke:none"
         x="0"
         dx="0 0 -0.27895391"
         y="0">Horizon</tspan></text>
    <path
       id="path18"
       d="m 315.07777,133.41379 -0.70764,13.03204 -2.11493,12.89345 -3.49824,12.60873 -4.84191,12.18119 -6.13072,11.61558 -7.35008,10.9184 -8.48616,10.09749 -9.52608,9.16218 -10.45807,8.12306 -11.27154,6.9919 -11.95734,5.78153 -12.50763,4.50561 -12.91623,3.1787 -13.17845,1.81573 -13.29138,0.43221 -13.25371,-0.95623 -13.06586,-2.3338 -12.72996,-3.68496 -12.24985,-4.99436 -11.63093,-6.24716 -10.88022,-7.42917 -10.00626,-8.52704 -9.0189,-9.52826 -7.92936,-10.42155 -6.74995,-11.19673 -5.49413,-11.84508 -4.17597,-12.35919 -2.81058,-12.73326 -1.41329,-12.96309 v -13.04604 l 1.41329,-12.98115 2.81058,-12.7692 4.17597,-12.41255 5.49413,-11.91525 6.74995,-11.28299 7.92936,-10.52286 9.0189,-9.64351 10.00626,-8.65488 10.88022,-7.5682 11.63093,-6.39577 12.24985,-5.15088 12.72996,-3.84763 13.06586,-2.50073 13.25371,-1.12557 13.29138,0.26237 13.17845,1.64735 12.91623,3.01366 12.50763,4.34581 11.95734,5.62874 11.27154,6.84787 10.45807,7.98944 9.52608,9.04045 8.48616,9.98906 7.35008,10.82448 6.13072,11.53726 4.84191,12.11932 3.49824,12.56404 2.11493,12.8664 0.70764,13.02304"
       style="fill:none;stroke:#ff00ff;stroke-width:0.79701;stroke-linecap:butt;stroke-linejoin:miter;stroke-miterlimit:10;stroke-dasharray:2.98883, 2.98883;stroke-dashoffset:0;stroke-opacity:1"
       transform="matrix(1.3333333,0,0,-1.3333333,-85.352,381.28267)"
       clip-path="url(#clipPath19)" />
    <path
       id="path20"
       d="m 315.07777,133.41379 0.91788,1.36635 -0.50781,1.35994 -1.92775,1.33807 -3.32585,1.30107 -4.68627,1.24931 -5.99357,1.18341 -7.23297,1.10412 -8.39046,1.01226 -9.45282,0.90898 -10.40813,0.79538 -11.24547,0.67279 -11.95541,0.54256 -12.52989,0.40617 -12.9624,0.2652 -13.24805,0.12123 -13.38358,-0.0241 -13.36749,-0.16922 -13.1999,-0.31238 -12.8828,-0.45201 -12.41969,-0.5865 -11.81589,-0.71437 -11.0782,-0.83415 -10.215,-0.94445 -9.23604,-1.04406 -8.15243,-1.13186 -6.97648,-1.20678 -5.72146,-1.2681 -4.40161,-1.315 -3.03191,-1.34703 -1.62782,-1.36377 -0.20534,-1.36508 1.2195,-1.35092 2.63054,-1.32145 4.01175,-1.27701 5.34749,-1.21809 6.62268,-1.14537 7.8228,-1.05969 8.93429,-0.96199 9.94457,-0.8534 10.84216,-0.73512 11.61691,-0.60853 12.26003,-0.47504 12.76423,-0.33615 13.12383,-0.1935 13.33472,-0.0486 13.39451,0.0968 13.30255,0.24115 13.05986,0.38274 12.66919,0.52 12.135,0.65135 11.4633,0.77537 10.6617,0.89054 9.73932,0.99569 8.70657,1.08949 7.57521,1.17097 6.35797,1.23922 5.06871,1.29338 3.72205,1.3329 2.33317,1.35733"
       style="fill:none;stroke:#0000ff;stroke-width:0.79701;stroke-linecap:butt;stroke-linejoin:miter;stroke-miterlimit:10;stroke-dasharray:2.98883, 2.98883;stroke-dashoffset:0;stroke-opacity:1"
       transform="matrix(1.3333333,0,0,-1.3333333,-85.352,381.28267)"
       clip-path="url(#clipPath21)" />
    <path
       id="path22"
       d="m 315.07777,133.41379 -0.5608,-0.41454 -0.69127,-0.41324 -0.82102,-0.41154 -0.94987,-0.40941 -1.07777,-0.40684 -1.20452,-0.40384 -1.33,-0.40042 -1.4541,-0.3966 -1.57663,-0.39233 -1.69759,-0.38768 -1.8167,-0.3826 -1.9339,-0.3771 -2.04911,-0.37128 -2.16217,-0.36499 -2.27292,-0.35834 -2.38133,-0.35135 -2.48721,-0.34395 -2.5905,-0.33621 -2.69108,-0.32809 -2.7888,-0.31967 -2.88363,-0.31089 -2.97541,-0.30177 -3.0641,-0.29234 -3.14954,-0.28263 -3.23169,-0.27261 -3.31045,-0.26228 -3.38574,-0.25171 -3.45746,-0.24084 -3.52559,-0.22974 -3.59,-0.21842 -3.65062,-0.20682 -3.70744,-0.19503 -3.76036,-0.18306 -3.80935,-0.17086 -3.85432,-0.15849 -3.89526,-0.14595 -3.9321,-0.13327 -3.96482,-0.12044 -3.99338,-0.1075 -4.01778,-0.0944 -4.03795,-0.0813 -4.05385,-0.068 -4.0655,-0.0547 -4.07294,-0.0413 -4.07605,-0.0279 -4.07491,-0.0144 -4.0695,-9.8e-4 -4.0598,0.0125 -4.04584,0.0259 -4.02766,0.0394 -4.00525,0.0528 -3.97862,0.0661 -3.94782,0.0793 -3.91287,0.0925 -3.87385,0.1056 -3.83074,0.11856 -3.7836,0.13143 -3.73251,0.1441 -3.67749,0.15668"
       style="fill:none;stroke:#0000ff;stroke-width:1.59404;stroke-linecap:butt;stroke-linejoin:miter;stroke-miterlimit:10;stroke-dasharray:none;stroke-opacity:1"
       transform="matrix(1.3333333,0,0,-1.3333333,-85.352,381.28267)"
       clip-path="url(#clipPath23)" />
    <path
       id="path24"
       d="M 6.07884,0 C 5.33234,0.18881 2.0509,1.25874 0,2.4231 V -2.4231 C 2.0509,-1.25874 5.33234,-0.18881 6.07884,0 Z"
       style="fill:#0000ff;fill-opacity:1;fill-rule:nonzero;stroke:#0000ff;stroke-width:1.59404;stroke-linecap:butt;stroke-linejoin:round;stroke-miterlimit:10;stroke-dasharray:none;stroke-opacity:1"
       transform="matrix(-1.3327867,0.03585333,0.03585333,1.3327867,211.86845,218.59576)"
       clip-path="url(#clipPath25)" />
    <path
       id="path26"
       d="m 133.07384,122.44528 0.32346,13.09419 0.96665,13.07917 1.59893,12.91592 2.21308,12.60634 2.80214,12.15393 3.35949,11.56381 3.87873,10.84267 4.35404,9.99866 4.78004,9.04139 5.15184,7.98164 5.46529,6.8315 5.71683,5.60395 5.90356,4.31285 6.02344,2.97294 6.07504,1.59932 6.05783,0.20761 5.97197,-1.1865 5.81844,-2.56713 5.599,-3.91868 5.31611,-5.22583 4.97298,-6.4738 4.57353,-7.64838 4.12222,-8.73631 3.62424,-9.72527 3.08521,-10.60402 2.51117,-11.36262 1.90869,-11.9925 1.28462,-12.48648 0.64598,-12.839 v -13.04604 l -0.64598,-13.10524 -1.28462,-13.01599 -1.90869,-12.77923 -2.51117,-12.39772 -3.08521,-11.87571 -3.62424,-11.21912 -4.12222,-10.43546 -4.57353,-9.53354 -4.97298,-8.5236 -5.31611,-7.41709 -5.599,-6.22653 -5.81844,-4.96544 -5.97197,-3.64809 -6.05783,-2.28937 -6.07504,-0.90473 -6.02344,0.49014 -5.90356,1.87947 -5.71683,3.24751 -5.46529,4.57875 -5.15184,5.85813 -4.78004,7.0711 -4.35404,8.20398 -3.87873,9.24388 -3.35949,10.17908 -2.80214,10.9989 -2.21308,11.69414 -1.59893,12.25687 -0.96665,12.68069 -0.32346,12.96089"
       style="fill:none;stroke:#00ff00;stroke-width:0.79701;stroke-linecap:butt;stroke-linejoin:miter;stroke-miterlimit:10;stroke-dasharray:2.98883, 2.98883;stroke-dashoffset:0;stroke-opacity:1"
       transform="matrix(1.3333333,0,0,-1.3333333,-85.352,381.28267)"
       clip-path="url(#clipPath27)" />
    <path
       id="path28"
       d="m 133.07602,123.51527 0.0199,2.3422 0.0407,2.34523 0.0614,2.34743 0.0822,2.34875 0.10286,2.34924 0.12357,2.34883 0.14419,2.34763 0.16474,2.34555 0.18528,2.34259 0.20572,2.33881 0.22609,2.33417 0.24639,2.32864 0.26657,2.32233 0.2867,2.31513 0.30667,2.3071 0.32656,2.29824 0.34635,2.28851 0.36597,2.27798 0.38549,2.26662 0.40485,2.25441 0.42409,2.24141 0.44313,2.22757 0.46205,2.21294 0.48079,2.19746 0.49936,2.18123 0.51771,2.16418 0.53594,2.14638 0.55391,2.12773 0.57171,2.10837 0.5893,2.08821 0.60667,2.06728 0.62381,2.04564 0.64075,2.02322 0.65744,2.00006 0.67389,1.9762 0.69011,1.95158 0.70603,1.9263 0.72178,1.90028 0.73718,1.87359 0.75235,1.84621 0.76724,1.81815 0.78186,1.78943 0.79619,1.76007 0.81024,1.73008 0.82398,1.69941 0.83742,1.66818 0.85055,1.6363 0.86339,1.60385 0.87592,1.57081 0.88809,1.53719 0.89998,1.50302 0.91153,1.46829 0.92272,1.43305 0.93361,1.39726 0.94416,1.36099 0.95434,1.32421 0.96419,1.28692 0.97368,1.24919 0.98285,1.21103"
       style="fill:none;stroke:#00ff00;stroke-width:1.59404;stroke-linecap:butt;stroke-linejoin:miter;stroke-miterlimit:10;stroke-dasharray:none;stroke-opacity:1"
       transform="matrix(1.3333333,0,0,-1.3333333,-85.352,381.28267)"
       clip-path="url(#clipPath29)" />
    <path
       id="path30"
       d="M 6.07884,0 C 5.33234,0.18881 2.0509,1.25874 0,2.4231 V -2.4231 C 2.0509,-1.25874 5.33234,-0.18881 6.07884,0 Z"
       style="fill:#00ff00;fill-opacity:1;fill-rule:nonzero;stroke:#00ff00;stroke-width:1.59404;stroke-linecap:butt;stroke-linejoin:round;stroke-miterlimit:10;stroke-dasharray:none;stroke-opacity:1"
       transform="matrix(0.323,-1.2936133,-1.2936133,-0.323,99.834,144.00325)"
       clip-path="url(#clipPath31)" />
    <path
       id="path32"
       d="m 190.16748,134.21118 -22.60475,99.3974"
       style="fill:none;stroke:#d40040;stroke-width:1.59404;stroke-linecap:butt;stroke-linejoin:miter;stroke-miterlimit:10;stroke-dasharray:none;stroke-opacity:1"
       transform="matrix(1.3333333,0,0,-1.3333333,-85.352,381.28267)"
       clip-path="url(#clipPath33)" />
    <path
       id="path34"
       d="M 6.07884,0 C 5.33234,0.18881 2.0509,1.25874 0,2.4231 V -2.4231 C 2.0509,-1.25874 5.33234,-0.18881 6.07884,0 Z"
       style="fill:#d40040;fill-opacity:1;fill-rule:nonzero;stroke:#d40040;stroke-width:1.59404;stroke-linecap:butt;stroke-linejoin:round;stroke-miterlimit:10;stroke-dasharray:none;stroke-opacity:1"
       transform="matrix(-0.29564,-1.3000933,-1.3000933,0.29564,138.06499,69.804573)"
       clip-path="url(#clipPath35)" />
    <text
       id="text35"
       xml:space="preserve"
       transform="matrix(1.3333333,0,0,1.3333333,124.632,58.585333)"
       clip-path="url(#clipPath36)"><tspan
         id="tspan35"
         style="font-variant:normal;font-weight:normal;font-size:9.96264px;font-family:'Latin Modern Math';writing-mode:lr-tb;fill:#d40040;fill-opacity:1;fill-rule:nonzero;stroke:none"
         x="0"
         y="0">⊙</tspan></text>
    <path
       id="path37"
       d="M 190.16748,134.21118 133.07294,122.44165"
       style="fill:none;stroke:#d40040;stroke-width:0.3985;stroke-linecap:butt;stroke-linejoin:miter;stroke-miterlimit:10;stroke-dasharray:none;stroke-opacity:1"
       transform="matrix(1.3333333,0,0,-1.3333333,-85.352,381.28267)"
       clip-path="url(#clipPath38)" />
    <text
       id="text38"
       xml:space="preserve"
       transform="matrix(1.3333333,0,0,1.3333333,210.40933,236.136)"
       clip-path="url(#clipPath39)"><tspan
         id="tspan38"
         style="font-variant:normal;font-weight:normal;font-size:14.3462px;font-family:'Latin Modern Math';writing-mode:lr-tb;fill:#000000;fill-opacity:1;fill-rule:nonzero;stroke:none"
         x="0"
         y="0">Φ</tspan></text>
    <text
       id="text39"
       xml:space="preserve"
       transform="matrix(1.3333333,0,0,1.3333333,90.337333,134.412)"
       clip-path="url(#clipPath40)"><tspan
         id="tspan39"
         style="font-variant:normal;font-weight:normal;font-size:14.3462px;font-family:'Latin Modern Math';writing-mode:lr-tb;fill:#000000;fill-opacity:1;fill-rule:nonzero;stroke:none"
         x="0"
         y="0">휃</tspan></text>
  </g>
</svg>
