<?xml version="1.0" encoding="UTF-8" standalone="no"?>
<!-- Created with Inkscape (http://www.inkscape.org/) -->

<svg
   version="1.1"
   id="svg1"
   width="405.23999"
   height="367.01334"
   viewBox="0 0 405.23999 367.01334"
   sodipodi:docname="horizontal-coordinate-nofont.pdf"
   xmlns:inkscape="http://www.inkscape.org/namespaces/inkscape"
   xmlns:sodipodi="http://sodipodi.sourceforge.net/DTD/sodipodi-0.dtd"
   xmlns="http://www.w3.org/2000/svg"
   xmlns:svg="http://www.w3.org/2000/svg">
  <defs
     id="defs1" />
  <sodipodi:namedview
     id="namedview1"
     pagecolor="#ffffff"
     bordercolor="#666666"
     borderopacity="1.0"
     inkscape:showpageshadow="2"
     inkscape:pageopacity="0.0"
     inkscape:pagecheckerboard="0"
     inkscape:deskcolor="#d1d1d1">
    <inkscape:page
       x="0"
       y="0"
       inkscape:label="1"
       id="page1"
       width="405.23999"
       height="367.01334"
       margin="0"
       bleed="0" />
  </sodipodi:namedview>
  <g
     id="g1"
     inkscape:groupmode="layer"
     inkscape:label="1">
    <path
       id="path1"
       d="m 1261.54,1235.08 1370.04,-8.75"
       style="fill:none;stroke:#000000;stroke-width:3.985;stroke-linecap:butt;stroke-linejoin:miter;stroke-miterlimit:10;stroke-dasharray:none;stroke-opacity:1"
       transform="matrix(0.13333333,0,0,-0.13333333,0,367.01333)" />
    <path
       id="path2"
       d="m 2613,1250.36 c 3.7,-14.37 12.09,-21.2 20.57,-24.04 -8.52,-2.74 -17,-9.46 -20.87,-23.78"
       style="fill:none;stroke:#000000;stroke-width:3.98484;stroke-linecap:round;stroke-linejoin:round;stroke-miterlimit:10;stroke-dasharray:none;stroke-opacity:1"
       transform="matrix(0.13333333,0,0,-0.13333333,0,367.01333)" />
    <path
       id="path3"
       d="m 2756.33,1177 v 99.7 h -11.06 v -89.07 h -0.14 l -11.65,24.14 -31.73,64.93 h -17.67 V 1177 h 11.06 v 89.06 h 0.14 l 11.64,-24.12 31.74,-64.94 h 17.67"
       style="fill:#000000;fill-opacity:1;fill-rule:nonzero;stroke:none"
       transform="matrix(0.13333333,0,0,-0.13333333,0,367.01333)" />
    <path
       id="path4"
       d="m 2834.94,1208.61 c 0,19.39 -14.22,34.33 -30.74,34.33 -16.95,0 -30.89,-15.24 -30.89,-34.33 0,-18.83 14.36,-33.05 30.74,-33.05 16.95,0 30.89,14.52 30.89,33.05 z m -10.92,1.44 c 0,-17.67 -10.19,-25.58 -19.82,-25.58 -10.34,0 -19.97,8.62 -19.97,25.58 0,17.37 10.77,24.26 19.82,24.26 9.92,0 19.97,-7.47 19.97,-24.26"
       style="fill:#000000;fill-opacity:1;fill-rule:nonzero;stroke:none"
       transform="matrix(0.13333333,0,0,-0.13333333,0,367.01333)" />
    <path
       id="path5"
       d="m 2881.69,1232.59 v 9.63 c -13.08,-0.14 -20.69,-7.75 -24.56,-13.36 v 12.64 h -9.93 V 1177 h 10.63 v 31.45 c 0,14.52 10.92,24 23.86,24.14"
       style="fill:#000000;fill-opacity:1;fill-rule:nonzero;stroke:none"
       transform="matrix(0.13333333,0,0,-0.13333333,0,367.01333)" />
    <path
       id="path6"
       d="m 2929.83,1181.17 -2.16,8.33 c -5.01,-4.45 -10.34,-5.03 -12.92,-5.03 -6.33,0 -7.19,6.75 -7.19,11.78 v 36.2 h 19.83 v 8.33 h -19.83 v 18.25 h -9.9 v -18.25 h -12.08 v -8.33 h 11.78 v -38.64 c 0,-8.34 1.87,-18.25 11.78,-18.25 9.63,0 16.24,3.32 20.69,5.61"
       style="fill:#000000;fill-opacity:1;fill-rule:nonzero;stroke:none"
       transform="matrix(0.13333333,0,0,-0.13333333,0,367.01333)" />
    <path
       id="path7"
       d="m 2994.91,1177 v 43.23 c 0,8.77 -1.86,21.99 -19.25,21.99 -9.91,0 -16.52,-5.59 -19.97,-9.91 v 44.39 h -10.63 V 1177 h 10.92 v 35.77 c 0,8.9 3.3,20.82 14.22,20.82 13.36,0 13.8,-9.32 13.8,-14.36 V 1177 h 10.91"
       style="fill:#000000;fill-opacity:1;fill-rule:nonzero;stroke:none"
       transform="matrix(0.13333333,0,0,-0.13333333,0,367.01333)" />
    <path
       id="path8"
       d="M 1261.54,1235.08 1035.19,1045.41"
       style="fill:none;stroke:#000000;stroke-width:3.985;stroke-linecap:butt;stroke-linejoin:miter;stroke-miterlimit:10;stroke-dasharray:none;stroke-opacity:1"
       transform="matrix(0.13333333,0,0,-0.13333333,0,367.01333)" />
    <path
       id="path9"
       d="m 1064.9,1039.12 c -12.11,8.56 -22.93,8.33 -31.24,5.01 4.73,7.6 6.84,18.21 0.53,31.64"
       style="fill:none;stroke:#000000;stroke-width:3.98491;stroke-linecap:round;stroke-linejoin:round;stroke-miterlimit:10;stroke-dasharray:none;stroke-opacity:1"
       transform="matrix(0.13333333,0,0,-0.13333333,0,367.01333)" />
    <path
       id="path10"
       d="m 981.719,908 v 9.766 h -18.813 c -1.734,0 -3.453,-0.141 -5.172,-0.141 h -28.453 v 37.781 h 46.547 v 8.625 H 929.281 V 998.5 h 19.547 c 1.719,0 3.438,-0.141 5.172,-0.141 h 25.844 v 9.051 H 916.922 V 908 h 64.797"
       style="fill:#000000;fill-opacity:1;fill-rule:nonzero;stroke:none"
       transform="matrix(0.13333333,0,0,-0.13333333,0,367.01333)" />
    <path
       id="path11"
       d="m 1045.61,908 v 42.094 c 0,13.781 -9.92,23.844 -23.28,23.844 -8.61,0 -15.08,-2.016 -22.13,-6.032 l 0.88,-9.484 c 6.31,4.594 12.92,7.187 21.25,7.187 6.61,0 12.36,-5.312 12.36,-15.812 v -5.875 c -6.47,-0.297 -15.08,-0.719 -23.71,-3.594 -9.62,-3.312 -15.23,-8.625 -15.23,-15.812 0,-6.313 3.75,-17.953 15.95,-17.953 7.91,0 17.96,2.296 23.27,6.75 V 908 Z m -10.92,19.25 c 0,-2.875 0,-6.328 -4.74,-9.187 -3.89,-2.454 -8.76,-2.875 -10.92,-2.875 -7.76,0 -13.08,4.156 -13.08,9.484 0,9.766 19.97,11.922 28.74,11.922 v -9.344"
       style="fill:#000000;fill-opacity:1;fill-rule:nonzero;stroke:none"
       transform="matrix(0.13333333,0,0,-0.13333333,0,367.01333)" />
    <path
       id="path12"
       d="m 1105.56,926.25 c 0,7.328 -4.45,11.922 -5.01,12.641 -5.33,5.453 -9.63,6.312 -18.39,8.047 -5.18,1 -12.5,2.437 -12.5,9.625 0,8.906 10.04,8.906 11.92,8.906 7.61,0 13.64,-1.735 19.97,-5.328 l 1.72,9.343 c -9.19,4.313 -16.96,4.454 -20.25,4.454 -3.32,0 -23.29,0 -23.29,-18.672 0,-6.328 3.46,-10.641 5.61,-12.641 5.18,-4.453 8.77,-5.172 17.24,-6.906 4.75,-1 13.08,-2.719 13.08,-10.344 0,-9.906 -11.21,-9.906 -13.22,-9.906 -5.75,0 -14.08,1.578 -21.83,7.187 l -1.73,-9.765 c 0.71,-0.438 10.48,-6.328 23.7,-6.328 18.53,0 22.98,11.203 22.98,19.687"
       style="fill:#000000;fill-opacity:1;fill-rule:nonzero;stroke:none"
       transform="matrix(0.13333333,0,0,-0.13333333,0,367.01333)" />
    <path
       id="path13"
       d="m 1155.83,912.172 -2.16,8.328 c -5.01,-4.453 -10.34,-5.031 -12.92,-5.031 -6.33,0 -7.19,6.75 -7.19,11.781 v 36.203 h 19.83 v 8.328 h -19.83 v 18.25 h -9.9 v -18.25 h -12.08 v -8.328 h 11.78 v -38.64 c 0,-8.344 1.87,-18.25 11.78,-18.25 9.63,0 16.24,3.312 20.69,5.609"
       style="fill:#000000;fill-opacity:1;fill-rule:nonzero;stroke:none"
       transform="matrix(0.13333333,0,0,-0.13333333,0,367.01333)" />
    <path
       id="path14"
       d="M 1261.54,1235.08 V 2579.24"
       style="fill:none;stroke:#000000;stroke-width:3.985;stroke-linecap:butt;stroke-linejoin:miter;stroke-miterlimit:10;stroke-dasharray:none;stroke-opacity:1"
       transform="matrix(0.13333333,0,0,-0.13333333,0,367.01333)" />
    <path
       id="path15"
       d="m 1237.63,2560.51 c 14.34,3.78 21.12,12.22 23.91,20.72 2.78,-8.5 9.56,-16.94 23.91,-20.72"
       style="fill:none;stroke:#000000;stroke-width:3.985;stroke-linecap:round;stroke-linejoin:round;stroke-miterlimit:10;stroke-dasharray:none;stroke-opacity:1"
       transform="matrix(0.13333333,0,0,-0.13333333,0,367.01333)" />
    <path
       id="path16"
       d="m 1152.72,2620 v 9.19 h -13.5 l -37.2,-0.28 h -4.6 l 54.58,85.04 v 5.75 h -68.23 v -8.76 h 28.15 c 1.74,0 3.46,0.14 5.17,0.14 h 19.25 l -54.59,-85.19 V 2620 h 70.97"
       style="fill:#000000;fill-opacity:1;fill-rule:nonzero;stroke:none"
       transform="matrix(0.13333333,0,0,-0.13333333,0,367.01333)" />
    <path
       id="path17"
       d="m 1217.47,2652.33 c 0,6.17 -0.58,14.94 -5.17,22.55 -5.89,9.92 -15.96,11.06 -20.11,11.06 -15.52,0 -28.46,-14.94 -28.46,-33.61 0,-18.97 13.8,-33.77 30.47,-33.77 6.6,0 14.5,1.88 22.41,7.61 0,0.58 -0.44,5.33 -0.44,5.33 0,0 -0.42,3.3 -0.42,3.88 -8.48,-7.19 -16.95,-8.19 -21.27,-8.19 -11.06,0 -20.54,9.9 -20.82,25.14 z m -8.47,7.75 h -34.48 c 2.43,9.62 9.18,17.23 17.67,17.23 4.45,0 14.36,-2 16.81,-17.23"
       style="fill:#000000;fill-opacity:1;fill-rule:nonzero;stroke:none"
       transform="matrix(0.13333333,0,0,-0.13333333,0,367.01333)" />
    <path
       id="path18"
       d="m 1282.91,2620 v 43.23 c 0,8.77 -1.86,21.99 -19.25,21.99 -8.05,0 -14.94,-3.59 -20.39,-10.49 v 9.77 h -10.21 V 2620 h 10.92 v 35.77 c 0,8.9 3.3,20.82 14.22,20.82 13.36,0 13.8,-9.32 13.8,-14.36 V 2620 h 10.91"
       style="fill:#000000;fill-opacity:1;fill-rule:nonzero;stroke:none"
       transform="matrix(0.13333333,0,0,-0.13333333,0,367.01333)" />
    <path
       id="path19"
       d="m 1315.83,2620 v 63.78 H 1305.2 V 2620 Z m 0.87,81.59 v 12.36 h -12.36 v -12.36 h 12.36"
       style="fill:#000000;fill-opacity:1;fill-rule:nonzero;stroke:none"
       transform="matrix(0.13333333,0,0,-0.13333333,0,367.01333)" />
    <path
       id="path20"
       d="m 1373.83,2624.17 -2.16,8.33 c -5.01,-4.45 -10.34,-5.03 -12.92,-5.03 -6.33,0 -7.19,6.75 -7.19,11.78 v 36.2 h 19.83 v 8.33 h -19.83 v 18.25 h -9.9 v -18.25 h -12.08 v -8.33 h 11.78 v -38.64 c 0,-8.34 1.87,-18.25 11.78,-18.25 9.63,0 16.24,3.32 20.69,5.61"
       style="fill:#000000;fill-opacity:1;fill-rule:nonzero;stroke:none"
       transform="matrix(0.13333333,0,0,-0.13333333,0,367.01333)" />
    <path
       id="path21"
       d="m 1438.91,2620 v 43.23 c 0,8.77 -1.86,21.99 -19.25,21.99 -9.91,0 -16.52,-5.59 -19.97,-9.91 v 44.39 h -10.63 V 2620 h 10.92 v 35.77 c 0,8.9 3.3,20.82 14.22,20.82 13.36,0 13.8,-9.32 13.8,-14.36 V 2620 h 10.91"
       style="fill:#000000;fill-opacity:1;fill-rule:nonzero;stroke:none"
       transform="matrix(0.13333333,0,0,-0.13333333,0,367.01333)" />
    <path
       id="path22"
       d="m 2301.89,2066 v 68.94 h -11.33 l -12.9,-33.67 c -3.49,-9.05 -8.16,-21.36 -9.25,-26.04 h -0.1 c -0.5,2.1 -1.68,5.77 -3.18,9.94 l -15.6,41.13 -3.37,8.64 h -11.22 V 2066 h 7.75 v 61.59 h 0.09 c 0.6,-3.18 4.56,-14.01 7.16,-20.76 l 14.7,-38.64 h 7.25 l 13.2,34.56 4.77,12.63 c 1,2.87 3.69,10.03 4.19,12.31 l 0.09,-0.1 V 2066 h 7.75"
       style="fill:#000000;fill-opacity:1;fill-rule:nonzero;stroke:none"
       transform="matrix(0.13333333,0,0,-0.13333333,0,367.01333)" />
    <path
       id="path23"
       d="m 2353.13,2087.75 c 0,3.38 -0.1,10.83 -3.97,16.8 -4.08,6.15 -10.14,7.25 -13.72,7.25 -11.02,0 -19.96,-10.53 -19.96,-23.35 0,-13.11 9.54,-23.54 21.46,-23.54 6.25,0 11.92,2.39 15.79,5.17 l -0.6,6.45 c -6.25,-5.17 -12.82,-5.56 -15.1,-5.56 -7.94,0 -14.3,7.05 -14.59,16.78 z m -5.66,5.47 h -24.55 c 1.6,7.55 6.86,12.51 12.52,12.51 5.17,0 10.73,-3.37 12.03,-12.51"
       style="fill:#000000;fill-opacity:1;fill-rule:nonzero;stroke:none"
       transform="matrix(0.13333333,0,0,-0.13333333,0,367.01333)" />
    <path
       id="path24"
       d="m 2388.48,2104.55 v 6.65 c -8.84,-0.11 -14.31,-4.97 -17.39,-9.54 v 9.04 h -6.95 V 2066 h 7.45 v 21.27 c 0,9.92 7.16,17.07 16.89,17.28"
       style="fill:#000000;fill-opacity:1;fill-rule:nonzero;stroke:none"
       transform="matrix(0.13333333,0,0,-0.13333333,0,367.01333)" />
    <path
       id="path25"
       d="m 2405.5,2066 v 44.11 h -7.45 V 2066 Z m 0.8,56.22 v 8.84 h -8.85 v -8.84 h 8.85"
       style="fill:#000000;fill-opacity:1;fill-rule:nonzero;stroke:none"
       transform="matrix(0.13333333,0,0,-0.13333333,0,367.01333)" />
    <path
       id="path26"
       d="m 2457.11,2066 v 68.94 h -7.45 v -29.21 c -5.27,4.38 -10.83,5.47 -14.5,5.47 -9.83,0 -17.58,-10.32 -17.58,-23.15 0,-13 7.64,-23.14 17.08,-23.14 3.28,0 9.14,0.89 14.7,6.26 V 2066 Z m -7.75,13.81 c 0,-1.39 -0.09,-3.18 -3.28,-6.06 -2.28,-1.98 -4.77,-2.78 -7.35,-2.78 -6.15,0 -13.4,4.67 -13.4,16.98 0,13.11 8.55,17.19 14.4,17.19 4.47,0 7.44,-2.28 9.63,-5.47 v -19.86"
       style="fill:#000000;fill-opacity:1;fill-rule:nonzero;stroke:none"
       transform="matrix(0.13333333,0,0,-0.13333333,0,367.01333)" />
    <path
       id="path27"
       d="m 2480.5,2066 v 44.11 h -7.45 V 2066 Z m 0.8,56.22 v 8.84 h -8.85 v -8.84 h 8.85"
       style="fill:#000000;fill-opacity:1;fill-rule:nonzero;stroke:none"
       transform="matrix(0.13333333,0,0,-0.13333333,0,367.01333)" />
    <path
       id="path28"
       d="m 2529.63,2066 v 28.7 c 0,10.14 -7.25,17.1 -16.4,17.1 -6.45,0 -10.92,-1.6 -15.59,-4.28 l 0.59,-6.55 c 5.18,3.67 10.15,4.97 15,4.97 4.68,0 8.65,-3.99 8.65,-11.33 v -4.27 c -14.9,-0.2 -27.52,-4.37 -27.52,-13.12 0,-4.27 2.69,-12.31 11.33,-12.31 1.39,0 10.73,0.2 16.48,4.67 V 2066 Z m -7.75,13.11 c 0,-1.89 0,-4.38 -3.38,-6.25 -2.87,-1.8 -6.66,-1.89 -7.75,-1.89 -4.77,0 -9.23,2.28 -9.23,6.45 0,6.96 16.09,7.66 20.36,7.85 v -6.16"
       style="fill:#000000;fill-opacity:1;fill-rule:nonzero;stroke:none"
       transform="matrix(0.13333333,0,0,-0.13333333,0,367.01333)" />
    <path
       id="path29"
       d="m 2580.22,2066 v 29.61 c 0,6.55 -1.5,15.59 -13.61,15.59 -8.95,0 -13.81,-6.76 -14.41,-7.54 v 7.04 h -7.15 V 2066 h 7.75 v 24.34 c 0,6.55 2.48,14.8 10.03,14.8 9.53,0 9.64,-7.06 9.64,-10.23 V 2066 h 7.75"
       style="fill:#000000;fill-opacity:1;fill-rule:nonzero;stroke:none"
       transform="matrix(0.13333333,0,0,-0.13333333,0,367.01333)" />
    <path
       id="path30"
       d="m 383.891,1368 v 68.94 h -8.844 v -30.1 h -33.875 v 30.1 h -8.828 V 1368 h 8.828 v 32.78 h 33.875 V 1368 h 8.844"
       style="fill:#000000;fill-opacity:1;fill-rule:nonzero;stroke:none"
       transform="matrix(0.13333333,0,0,-0.13333333,0,367.01333)" />
    <path
       id="path31"
       d="m 440.594,1389.86 c 0,13.31 -9.938,23.94 -21.766,23.94 -12.219,0 -21.844,-10.92 -21.844,-23.94 0,-13.13 10.125,-22.95 21.75,-22.95 11.922,0 21.86,10.03 21.86,22.95 z m -7.75,0.98 c 0,-11.71 -6.766,-17.57 -14.11,-17.57 -6.859,0 -14,5.56 -14,17.57 0,12.04 7.547,16.89 14,16.89 6.954,0 14.11,-5.17 14.11,-16.89"
       style="fill:#000000;fill-opacity:1;fill-rule:nonzero;stroke:none"
       transform="matrix(0.13333333,0,0,-0.13333333,0,367.01333)" />
    <path
       id="path32"
       d="m 473.484,1406.55 v 6.65 c -8.843,-0.11 -14.312,-4.97 -17.39,-9.54 v 9.04 h -6.953 V 1368 h 7.453 v 21.27 c 0,9.92 7.156,17.07 16.89,17.28"
       style="fill:#000000;fill-opacity:1;fill-rule:nonzero;stroke:none"
       transform="matrix(0.13333333,0,0,-0.13333333,0,367.01333)" />
    <path
       id="path33"
       d="m 490.5,1368 v 44.11 h -7.453 V 1368 Z m 0.797,56.22 v 8.84 h -8.844 v -8.84 h 8.844"
       style="fill:#000000;fill-opacity:1;fill-rule:nonzero;stroke:none"
       transform="matrix(0.13333333,0,0,-0.13333333,0,367.01333)" />
    <path
       id="path34"
       d="m 538.938,1368 v 6.16 h -14.61 c -1.187,0 -2.375,-0.1 -3.578,-0.1 h -8.437 l 26.421,34.17 v 3.88 h -35.562 v -5.86 h 13.812 c 1.188,0 2.375,0.09 3.579,0.09 h 7.734 l -26.516,-34.26 V 1368 h 37.157"
       style="fill:#000000;fill-opacity:1;fill-rule:nonzero;stroke:none"
       transform="matrix(0.13333333,0,0,-0.13333333,0,367.01333)" />
    <path
       id="path35"
       d="m 588.594,1389.86 c 0,13.31 -9.938,23.94 -21.766,23.94 -12.219,0 -21.844,-10.92 -21.844,-23.94 0,-13.13 10.125,-22.95 21.75,-22.95 11.922,0 21.86,10.03 21.86,22.95 z m -7.75,0.98 c 0,-11.71 -6.766,-17.57 -14.11,-17.57 -6.859,0 -14,5.56 -14,17.57 0,12.04 7.547,16.89 14,16.89 6.954,0 14.11,-5.17 14.11,-16.89"
       style="fill:#000000;fill-opacity:1;fill-rule:nonzero;stroke:none"
       transform="matrix(0.13333333,0,0,-0.13333333,0,367.01333)" />
    <path
       id="path36"
       d="m 635.219,1368 v 29.61 c 0,6.55 -1.5,15.59 -13.61,15.59 -8.953,0 -13.812,-6.76 -14.406,-7.54 v 7.04 h -7.156 V 1368 h 7.75 v 24.34 c 0,6.55 2.484,14.8 10.031,14.8 9.531,0 9.641,-7.06 9.641,-10.23 V 1368 h 7.75"
       style="fill:#000000;fill-opacity:1;fill-rule:nonzero;stroke:none"
       transform="matrix(0.13333333,0,0,-0.13333333,0,367.01333)" />
    <path
       id="path37"
       d="m 2510.64,1227.11 -7.08,130.32 -21.15,128.93 -34.98,126.09 -48.42,121.81 -61.31,116.16 -73.5,109.18 -84.86,100.98 -95.26,91.62 -104.58,81.23 -112.71,69.92 -119.58,57.81 -125.08,45.06 -129.16,31.79 -131.78,18.15 -132.92,4.32 -132.53,-9.56 -130.662,-23.33 -127.301,-36.86 -122.496,-49.94 -116.312,-62.47 -108.801,-74.29 -100.063,-85.27 -90.187,-95.28 -79.293,-104.22 -67.5,-111.97 L 98.1836,1688.84 56.4219,1565.25 28.3164,1437.92 14.1836,1308.29 V 1177.83 L 28.3164,1048.02 56.4219,920.324 98.1836,796.199 153.125,677.047 220.625,564.215 299.918,458.988 390.105,362.551 490.168,276.004 598.969,200.32 715.281,136.363 837.777,84.8555 965.078,46.3789 1095.74,21.3711 l 132.53,-11.2578 132.92,2.625 131.78,16.4726 129.16,30.1368 125.08,43.4613 119.58,56.285 112.71,68.48 104.58,79.895 95.26,90.402 84.86,99.891 73.5,108.246 61.31,115.371 48.42,121.195 34.98,125.641 21.15,128.665 7.08,130.23"
       style="fill:none;stroke:#ff00ff;stroke-width:7.9701;stroke-linecap:butt;stroke-linejoin:miter;stroke-miterlimit:10;stroke-dasharray:29.8883, 29.8883;stroke-dashoffset:0;stroke-opacity:1"
       transform="matrix(0.13333333,0,0,-0.13333333,0,367.01333)" />
    <path
       id="path38"
       d="m 2510.64,1227.11 9.18,13.66 -5.08,13.6 -19.28,13.38 -33.26,13.01 -46.86,12.49 -59.93,11.84 -72.34,11.04 -83.9,10.12 -94.53,9.09 -104.08,7.96 -112.45,6.72 -119.56,5.43 -125.3,4.06 -129.62,2.65 -132.48,1.22 -133.84,-0.24 -133.67,-1.7 -132.003,-3.12 -128.828,-4.52 -124.196,-5.87 -118.16,-7.14 -110.781,-8.34 -102.149,-9.45 -92.359,-10.44 -81.527,-11.31 -69.766,-12.07 -57.2108,-12.68 -44.0196,-13.15 -30.3164,-13.47 -16.27732,-13.64 -2.05469,-13.65 12.19531,-13.51 26.3047,-13.22 40.1172,-12.77 53.4766,-12.18 66.227,-11.45 78.226,-10.6 89.344,-9.62 99.445,-8.53 108.422,-7.35 116.168,-6.09 122.602,-4.75 127.64,-3.36 131.24,-1.93 133.35,-0.49 133.94,0.97 133.03,2.41 130.6,3.83 126.69,5.19 121.35,6.52 114.63,7.75 106.62,8.91 97.39,9.95 87.07,10.9 75.75,11.71 63.58,12.39 50.69,12.94 37.21,13.33 23.34,13.57"
       style="fill:none;stroke:#0000ff;stroke-width:7.9701;stroke-linecap:butt;stroke-linejoin:miter;stroke-miterlimit:10;stroke-dasharray:29.8883, 29.8883;stroke-dashoffset:0;stroke-opacity:1"
       transform="matrix(0.13333333,0,0,-0.13333333,0,367.01333)" />
    <path
       id="path39"
       d="m 2510.64,1227.11 -5.61,-4.15 -6.91,-4.13 -8.21,-4.12 -9.5,-4.09 -10.78,-4.07 -12.04,-4.03 -13.3,-4.01 -14.54,-3.97 -15.77,-3.92 -16.98,-3.88 -18.16,-3.82 -19.34,-3.77 -20.5,-3.72 -21.62,-3.64 -22.73,-3.59 -23.81,-3.51 -24.87,-3.44 -25.91,-3.36 -26.91,-3.28 -27.88,-3.2 -28.84,-3.11 -29.75,-3.02 -30.64,-2.92 -31.5,-2.83 -32.32,-2.73 -33.1,-2.62 -33.86,-2.52 -34.58,-2.4 -35.25,-2.3 -35.9,-2.18 -36.51,-2.07 -37.07,-1.95 -37.61,-1.83 -38.09,-1.71 -38.54,-1.59 -38.96,-1.46 -39.32,-1.33 -39.64,-1.2 -39.94,-1.08 -40.17,-0.94 -40.39,-0.82 -40.53,-0.67 -40.66,-0.55 -40.73,-0.42 -40.76,-0.27 -40.75,-0.15 -40.69,-0.01 -40.6,0.13 -40.46,0.25 -40.27,0.4 -40.06,0.53 -39.784,0.66 -39.48,0.79 -39.125,0.92 -38.743,1.06 -38.304,1.19 -37.836,1.31 -37.324,1.44 -36.778,1.57"
       style="fill:none;stroke:#0000ff;stroke-width:15.9404;stroke-linecap:butt;stroke-linejoin:miter;stroke-miterlimit:10;stroke-dasharray:none;stroke-opacity:1"
       transform="matrix(0.13333333,0,0,-0.13333333,0,367.01333)" />
    <path
       id="path40"
       d="m 1528.25,1111.49 c 7.51,-1.69 40.6,-11.5 61.41,-22.59 l -1.3,48.44 c -20.18,-12.19 -52.7,-23.77 -60.11,-25.85 z"
       style="fill:#0000ff;fill-opacity:1;fill-rule:nonzero;stroke:#0000ff;stroke-width:15.9396;stroke-linecap:butt;stroke-linejoin:round;stroke-miterlimit:10;stroke-dasharray:none;stroke-opacity:1"
       transform="matrix(0.13333333,0,0,-0.13333333,0,367.01333)" />
    <path
       id="path41"
       d="m 690.598,1117.42 3.234,130.94 9.668,130.8 15.988,129.16 22.133,126.06 28.02,121.54 33.593,115.63 38.789,108.43 43.54,99.99 47.8,90.41 51.52,79.82 54.657,68.32 57.16,56.03 59.04,43.13 60.23,29.73 60.75,16 60.58,2.07 59.72,-11.86 58.19,-25.67 55.99,-39.19 53.16,-52.26 49.73,-64.74 45.73,-76.48 41.22,-87.37 36.25,-97.25 30.85,-106.04 25.11,-113.62 19.09,-119.93 12.84,-124.86 6.46,-128.39 v -130.46 l -6.46,-131.06 -12.84,-130.16 -19.09,-127.788 -25.11,-123.977 -30.85,-118.758 -36.25,-112.191 -41.22,-104.356 -45.73,-95.336 -49.73,-85.234 -53.16,-74.172 -55.99,-62.265 -58.19,-49.6528 -59.72,-36.4805 -60.58,-22.8945 -60.75,-9.04692 -60.23,4.90235 -59.04,18.79297 -57.16,32.4766 -54.657,45.7848 -51.52,58.582 -47.8,70.711 -43.54,82.039 -38.789,92.442 -33.593,101.789 -28.02,109.988 -22.133,116.942 -15.988,122.57 -9.668,126.805 -3.234,129.607"
       style="fill:none;stroke:#00ff00;stroke-width:7.9701;stroke-linecap:butt;stroke-linejoin:miter;stroke-miterlimit:10;stroke-dasharray:29.8883, 29.8883;stroke-dashoffset:0;stroke-opacity:1"
       transform="matrix(0.13333333,0,0,-0.13333333,0,367.01333)" />
    <path
       id="path42"
       d="m 690.621,1128.12 0.199,23.42 0.407,23.46 0.613,23.47 0.824,23.49 1.027,23.49 1.235,23.49 1.441,23.47 1.649,23.46 1.851,23.43 2.059,23.38 2.262,23.35 2.464,23.28 2.664,23.23 2.868,23.15 3.066,23.07 3.266,22.98 3.464,22.89 3.661,22.78 3.851,22.66 4.051,22.55 4.238,22.41 4.434,22.27 4.621,22.14 4.809,21.97 4.992,21.81 5.176,21.64 5.359,21.47 5.539,21.28 5.719,21.08 5.89,20.88 6.071,20.68 6.234,20.45 6.41,20.23 6.574,20 6.739,19.77 6.902,19.51 7.059,19.26 7.218,19.01 7.371,18.73 7.524,18.47 7.672,18.18 7.82,17.89 7.961,17.6 8.102,17.3 8.242,17 8.371,16.68 8.508,16.36 8.632,16.04 8.758,15.71 8.883,15.37 9,15.03 9.113,14.68 9.231,14.33 9.336,13.97 9.441,13.62 9.543,13.24 9.645,12.87 9.73,12.49 9.83,12.11"
       style="fill:none;stroke:#00ff00;stroke-width:15.9404;stroke-linecap:butt;stroke-linejoin:miter;stroke-miterlimit:10;stroke-dasharray:none;stroke-opacity:1"
       transform="matrix(0.13333333,0,0,-0.13333333,0,367.01333)" />
    <path
       id="path43"
       d="m 763.48,1731.54 c -3.64,-6.78 -21.968,-36.03 -38.234,-53.1 l 47.02,-11.74 c -6.328,22.71 -8.762,57.14 -8.786,64.84 z"
       style="fill:#00ff00;fill-opacity:1;fill-rule:nonzero;stroke:#00ff00;stroke-width:15.9403;stroke-linecap:butt;stroke-linejoin:round;stroke-miterlimit:10;stroke-dasharray:none;stroke-opacity:1"
       transform="matrix(0.13333333,0,0,-0.13333333,0,367.01333)" />
    <path
       id="path44"
       d="m 1261.54,1235.08 -226.05,993.97"
       style="fill:none;stroke:#d40040;stroke-width:15.9404;stroke-linecap:butt;stroke-linejoin:miter;stroke-miterlimit:10;stroke-dasharray:none;stroke-opacity:1"
       transform="matrix(0.13333333,0,0,-0.13333333,0,367.01333)" />
    <path
       id="path45"
       d="m 1022.01,2288.33 c -0.19,-7.7 -3.34,-42.07 -10.15,-64.65 l 47.25,10.75 c -15.9,17.41 -33.61,47.04 -37.1,53.9 z"
       style="fill:#d40040;fill-opacity:1;fill-rule:nonzero;stroke:#d40040;stroke-width:15.9398;stroke-linecap:butt;stroke-linejoin:round;stroke-miterlimit:10;stroke-dasharray:none;stroke-opacity:1"
       transform="matrix(0.13333333,0,0,-0.13333333,0,367.01333)" />
    <path
       id="path46"
       d="m 1007.61,2337.83 c 0,18.78 -15.188,33.98 -33.969,33.98 -18.766,0 -33.969,-15.2 -33.969,-33.98 0,-18.77 15.203,-33.97 33.969,-33.97 18.781,0 33.969,15.2 33.969,33.97 z m -3.97,0 c 0,-16.58 -13.406,-30 -29.999,-30 -16.594,0 -30,13.42 -30,30 0,16.59 13.406,30 30,30 16.593,0 29.999,-13.41 29.999,-30 z m -24.734,0 c 0,2.89 -2.39,5.26 -5.265,5.26 -2.875,0 -5.266,-2.37 -5.266,-5.26 0,-2.88 2.391,-5.27 5.266,-5.27 2.875,0 5.265,2.39 5.265,5.27"
       style="fill:#d40040;fill-opacity:1;fill-rule:nonzero;stroke:none"
       transform="matrix(0.13333333,0,0,-0.13333333,0,367.01333)" />
    <path
       id="path47"
       d="M 1261.54,1235.08 690.59,1117.39"
       style="fill:none;stroke:#d40040;stroke-width:3.985;stroke-linecap:butt;stroke-linejoin:miter;stroke-miterlimit:10;stroke-dasharray:none;stroke-opacity:1"
       transform="matrix(0.13333333,0,0,-0.13333333,0,367.01333)" />
    <path
       id="path48"
       d="m 1673.53,1030.98 c 0,14.94 -16.37,28.02 -38.22,29.74 v 8.05 c 0,4.89 0,6.9 13.66,6.9 h 4.73 v 4.46 c -5.17,-0.44 -18.39,-0.44 -24.28,-0.44 -5.87,0 -19.25,0 -24.42,0.44 v -4.46 h 4.75 c 13.64,0 13.64,-1.87 13.64,-6.9 v -8.05 c -21.97,-2.16 -37.34,-15.36 -37.34,-29.59 0,-14.8 15.93,-27.58 37.34,-29.74 v -8.046 c 0,-4.875 0,-6.891 -13.64,-6.891 H 1605 V 982 c 5.17,0.438 18.39,0.438 24.28,0.438 5.89,0 19.25,0 24.42,-0.438 v 4.453 h -4.73 c -13.66,0 -13.66,1.875 -13.66,6.891 v 8.046 c 22.27,1.74 38.22,15.09 38.22,29.59 z m -50.14,-26.28 c -20.39,2.72 -22.98,17.38 -22.98,26.28 0,7.47 1.43,23.57 22.98,26.44 z m 35.78,26.43 c 0,-8.61 -2.15,-23.99 -23.86,-26.58 v 53.01 c 19.83,-2.29 23.86,-15.51 23.86,-26.43"
       style="fill:#000000;fill-opacity:1;fill-rule:nonzero;stroke:none"
       transform="matrix(0.13333333,0,0,-0.13333333,0,367.01333)" />
    <path
       id="path49"
       d="m 743.359,1816.83 c 0,9.48 -2.578,29.45 -17.234,29.45 -19.969,0 -42.094,-40.51 -42.094,-73.4 0,-13.52 4.172,-29.46 17.235,-29.46 20.265,0 42.093,41.24 42.093,73.41 z m -9.484,8.9 c 0,-7.03 -1.141,-14.35 -4.594,-28.59 h -30.015 c 2.437,9.2 5.312,20.69 11.062,30.89 3.875,7.05 9.188,15.1 15.656,15.1 7.032,0 7.891,-9.21 7.891,-17.4 z M 728,1792.55 c -1.594,-6.61 -4.609,-18.82 -10.062,-29.16 -5.032,-9.76 -10.485,-16.81 -16.672,-16.81 -4.735,0 -7.75,4.17 -7.75,17.53 0,6.03 0.859,14.36 4.593,28.44 H 728"
       style="fill:#000000;fill-opacity:1;fill-rule:nonzero;stroke:none"
       transform="matrix(0.13333333,0,0,-0.13333333,0,367.01333)" />
  </g>
</svg>
